<svg width="133" height="121" viewBox="0 0 133 121" fill="none" xmlns="http://www.w3.org/2000/svg">
<path d="M52.8293 0C43.4337 0 35.531 5.28488 33.4721 12.3251C31.0477 9.70675 27.1949 7.97814 22.8448 7.97814C15.559 7.97814 9.58161 12.766 9.58161 18.6018C9.58161 21.7576 11.363 24.5759 14.1214 26.5281H6.29821C4.46703 26.5282 2.9826 27.7173 2.98242 29.184V76.9906C2.9826 78.4574 4.46703 79.6464 6.29821 79.6465H75.9297C77.7609 79.6464 79.2453 78.4574 79.2455 76.9906V69.028H83.183C84.5687 72.0992 88.2237 74.3347 92.5086 74.3347H99.1402C100.971 74.3346 102.456 73.1455 102.456 71.6788V37.1518C102.456 35.685 100.971 34.496 99.1402 34.4959H92.5086C88.2166 34.4959 84.5568 36.7389 83.1765 39.8181H79.2455V29.184C79.2453 27.7173 77.7609 26.5282 75.9297 26.5281H67.6338C70.7883 23.7097 72.7305 20.0009 72.7305 15.9355C72.7305 7.16602 63.7776 0 52.8293 0ZM52.8293 5.31184C60.1936 5.31184 66.0989 10.0368 66.0989 15.9355C66.0989 21.7117 60.426 26.3372 53.2762 26.5281H52.3824C45.2331 26.3367 39.5661 21.7115 39.5662 15.9355C39.5661 10.0368 45.465 5.31184 52.8293 5.31184ZM22.8448 13.29C26.5465 13.29 29.4763 15.6367 29.4763 18.6018C29.4763 21.5669 26.5465 23.9189 22.8448 23.9189C19.143 23.9189 16.2132 21.5669 16.2132 18.6018C16.2132 15.6367 19.143 13.29 22.8448 13.29ZM34.9616 22.8814C35.7738 24.2104 36.8033 25.4367 38.0248 26.5281H31.5681C32.9972 25.517 34.1771 24.2921 34.9616 22.8814ZM9.61399 31.8399H72.6139V74.3347H9.61399V31.8399ZM92.5086 39.8077H95.8244V69.0229H92.5086C90.6332 69.0229 89.2337 67.9031 89.2058 66.4084V42.4221C89.2337 40.9274 90.6332 39.8077 92.5086 39.8077ZM79.2455 45.1092H82.5613V63.7162H79.2455V45.1092Z" fill="white"/>
<path d="M19.5661 37.1507C18.6864 37.1507 17.8429 37.4306 17.2209 37.9288C16.5989 38.427 16.2495 39.1027 16.2495 39.8073C16.2495 40.5118 16.5989 41.1875 17.2209 41.6857C17.8429 42.184 18.6864 42.4639 19.5661 42.4639H26.1993C27.0789 42.4639 27.9225 42.184 28.5445 41.6857C29.1665 41.1875 29.5159 40.5118 29.5159 39.8073C29.5159 39.1027 29.1665 38.427 28.5445 37.9288C27.9225 37.4306 27.0789 37.1507 26.1993 37.1507H19.5661Z" fill="white"/>
<g clip-path="url(#clip0_62_50)">
<rect width="86.6455" height="77.5663" transform="matrix(0.904719 0.42601 -0.704046 0.710154 54.6102 29.0042)" fill="#2E2E2E"/>
<path d="M57.5827 40.5036L16.625 81.8167L75.4174 109.501L116.375 68.1875L57.5827 40.5036ZM93.3645 62.4023L84.8316 71.0092L65.2342 61.7812L73.767 53.1743L93.3645 62.4023ZM61.821 65.224L81.4185 74.4519L71.1791 84.7802L51.5816 75.5522L61.821 65.224ZM24.9375 80.6809L59.0689 46.2534L68.8676 50.8673L34.7363 85.2949L24.9375 80.6809ZM39.6356 87.6019L48.1685 78.995L67.7659 88.2229L59.2331 96.8298L39.6356 87.6019ZM73.9312 103.751L64.1324 99.1368L98.2638 64.7093L108.063 69.3232L73.9312 103.751ZM100.493 73.3339L95.5938 71.0269L99.0069 67.5841L103.906 69.8911L100.493 73.3339ZM93.6669 80.2194L88.7675 77.9124L92.1807 74.4696L97.08 76.7766L93.6669 80.2194ZM86.8406 87.1049L81.9412 84.7979L85.3544 81.3551L90.2537 83.6621L86.8406 87.1049ZM80.0143 93.9904L75.115 91.6834L78.5281 88.2407L83.4275 90.5476L80.0143 93.9904ZM68.2887 98.5689L71.7018 95.1262L76.6012 97.4331L73.188 100.876L68.2887 98.5689ZM64.7114 51.4352L61.2983 54.878L56.3989 52.571L59.812 49.1282L64.7114 51.4352ZM52.9858 56.0137L57.8851 58.3207L54.472 61.7635L49.5726 59.4565L52.9858 56.0137ZM46.1595 62.8992L51.0588 65.2062L47.6457 68.649L42.7463 66.342L46.1595 62.8992ZM39.3332 69.7848L44.2326 72.0917L40.8194 75.5345L35.9201 73.2275L39.3332 69.7848ZM32.5069 76.6703L37.4063 78.9772L33.9932 82.42L29.0938 80.113L32.5069 76.6703Z" fill="white"/>
</g>
<defs>
<clipPath id="clip0_62_50">
<rect width="86.6455" height="77.5663" fill="white" transform="matrix(0.904719 0.42601 -0.704046 0.710154 54.6102 29.0042)"/>
</clipPath>
</defs>
</svg>
